<svg width="387" height="337" viewBox="0 0 387 337" fill="none" xmlns="http://www.w3.org/2000/svg">
<rect x="24" y="40" width="232" height="19" rx="8" fill="white"/>
<rect x="24" y="89" width="232" height="19" rx="8" fill="white"/>
<rect x="24" y="138" width="232" height="19" rx="8" fill="white"/>
<rect x="24" y="187" width="232" height="19" rx="8" fill="white"/>
<path d="M225.213 333.262L145.588 253.637C140.804 248.853 140.804 241.097 145.588 236.312L162.911 218.988C167.695 214.204 175.452 214.204 180.236 218.988L233.875 272.627L348.764 157.738C353.548 152.954 361.305 152.954 366.088 157.738L383.412 175.062C388.196 179.846 388.196 187.602 383.412 192.387L242.537 333.262C237.753 338.046 229.997 338.046 225.213 333.262Z" fill="#69B877"/>
</svg>
